<?xml version="1.0" encoding="utf-8"?>
<!-- Generator: Adobe Illustrator 16.0.0, SVG Export Plug-In . SVG Version: 6.00 Build 0)  -->
<!DOCTYPE svg PUBLIC "-//W3C//DTD SVG 1.1//EN" "http://www.w3.org/Graphics/SVG/1.1/DTD/svg11.dtd">
<svg version="1.1" xmlns="http://www.w3.org/2000/svg" xmlns:xlink="http://www.w3.org/1999/xlink" x="0px" y="0px" width="20px"
	 height="20px" viewBox="0 0 20 20" enable-background="new 0 0 20 20" xml:space="preserve">
<g id="Ebene_1">
</g>
<g id="Ebene_2">
	<g id="Symbols">
		<g id="Icon_x2F_facebook" transform="translate(120.000000, 130.000000)">
			<g id="footer-facebook-_x28_1_x29_">
				<path id="Facebook" fill="#3A3A3A" d="M-100-119.939c0-5.557-4.477-10.061-10-10.061s-10,4.504-10,10.061
					c0,5.021,3.656,9.183,8.438,9.939v-7.031h-2.539v-2.908h2.539v-2.216c0-2.522,1.493-3.915,3.777-3.915
					c1.094,0,2.238,0.196,2.238,0.196v2.476h-1.261c-1.243,0-1.63,0.775-1.63,1.571v1.887h2.773l-0.443,2.908h-2.33V-110
					C-103.656-110.756-100-114.918-100-119.939"/>
			</g>
		</g>
	</g>
</g>
</svg>
