<?xml version="1.0" encoding="utf-8"?>
<!-- Generator: Adobe Illustrator 16.0.0, SVG Export Plug-In . SVG Version: 6.00 Build 0)  -->
<!DOCTYPE svg PUBLIC "-//W3C//DTD SVG 1.1//EN" "http://www.w3.org/Graphics/SVG/1.1/DTD/svg11.dtd">
<svg version="1.1" id="Ebene_1" xmlns="http://www.w3.org/2000/svg" xmlns:xlink="http://www.w3.org/1999/xlink" x="0px" y="0px"
	 width="20px" height="20px" viewBox="0 0 20 20" enable-background="new 0 0 20 20" xml:space="preserve">
<g id="Symbols">
	<g id="footer_x2F_idle" transform="translate(-255.000000, -130.000000)">
		<g id="Icon_x2F_linkedin" transform="translate(255.000000, 130.000000)">
			<g id="footer-linkedin">
				<path id="LinkedIn" fill="#3A3A3A" d="M18.521,0C19.336,0,20,0.646,20,1.442l0,0v17.115C20,19.354,19.336,20,18.521,20l0,0
					H1.475C0.661,20,0,19.354,0,18.557l0,0V1.442C0,0.646,0.661,0,1.475,0l0,0H18.521z M5.718,7.273H2.736v9.602h2.982V7.273z
					 M13.302,7.035c-1.45,0-2.421,0.796-2.818,1.551l0,0h-0.041V7.273H7.587v9.602h2.976v-4.749c0-1.253,0.236-2.466,1.786-2.466
					c1.528,0,1.548,1.432,1.548,2.545v4.67h2.979v-5.266C16.875,9.023,16.318,7.035,13.302,7.035z M4.228,2.5
					C3.271,2.5,2.5,3.275,2.5,4.23c0,0.956,0.771,1.731,1.728,1.731c0.953,0,1.727-0.775,1.727-1.731
					C5.955,3.275,5.181,2.5,4.228,2.5z"/>
			</g>
		</g>
	</g>
</g>
</svg>
