<?xml version="1.0" encoding="utf-8"?>
<!-- Generator: Adobe Illustrator 16.0.0, SVG Export Plug-In . SVG Version: 6.00 Build 0)  -->
<!DOCTYPE svg PUBLIC "-//W3C//DTD SVG 1.1//EN" "http://www.w3.org/Graphics/SVG/1.1/DTD/svg11.dtd">
<svg version="1.1" id="Ebene_1" xmlns="http://www.w3.org/2000/svg" xmlns:xlink="http://www.w3.org/1999/xlink" x="0px" y="0px"
	 width="20px" height="20px" viewBox="0 0 20 20" enable-background="new 0 0 20 20" xml:space="preserve">
<g id="Symbols">
	<g id="footer_x2F_idle" transform="translate(-165.000000, -130.000000)">
		<g id="Icon_x2F_Instagram_x5F_black" transform="translate(165.000000, 130.000000)">
			<path id="Combined-Shape" fill="#3A3A3A" d="M0,10C0,4.478,4.477,0,10,0c5.523,0,10,4.478,10,10c0,5.523-4.477,10-10,10
				C4.477,20,0,15.523,0,10z M10,4.667c-1.448,0-1.631,0.007-2.199,0.032C7.233,4.726,6.846,4.815,6.507,4.947
				C6.156,5.084,5.858,5.266,5.562,5.563C5.266,5.858,5.083,6.156,4.947,6.507C4.814,6.846,4.724,7.234,4.699,7.801
				C4.673,8.37,4.667,8.553,4.667,10c0,1.449,0.007,1.631,0.032,2.199c0.026,0.568,0.116,0.955,0.248,1.295
				c0.136,0.35,0.318,0.648,0.615,0.943c0.296,0.297,0.594,0.48,0.944,0.617c0.339,0.131,0.727,0.221,1.295,0.246
				c0.568,0.027,0.75,0.033,2.199,0.033c1.447,0,1.628-0.006,2.199-0.033c0.566-0.025,0.955-0.115,1.295-0.246
				c0.35-0.137,0.646-0.32,0.943-0.617c0.297-0.295,0.479-0.594,0.615-0.943c0.131-0.34,0.221-0.729,0.248-1.295
				c0.025-0.568,0.033-0.75,0.033-2.199c0-1.447-0.008-1.63-0.033-2.199c-0.027-0.566-0.117-0.955-0.248-1.294
				c-0.137-0.351-0.318-0.648-0.615-0.944c-0.297-0.297-0.594-0.479-0.945-0.615c-0.34-0.132-0.727-0.222-1.295-0.248
				c-0.568-0.025-0.75-0.032-2.199-0.032H10z"/>
			<path id="Combined-Shape_1_" fill="#3A3A3A" d="M9.522,5.629c0.143-0.001,0.301,0,0.479,0c1.423,0,1.593,0.004,2.156,0.029
				c0.52,0.024,0.801,0.111,0.99,0.185c0.248,0.097,0.426,0.212,0.611,0.399c0.188,0.186,0.303,0.363,0.4,0.613
				c0.072,0.188,0.16,0.469,0.184,0.989c0.025,0.563,0.031,0.731,0.031,2.155c0,1.422-0.006,1.592-0.031,2.154
				c-0.023,0.52-0.111,0.801-0.184,0.99c-0.098,0.248-0.213,0.426-0.4,0.611c-0.186,0.188-0.363,0.303-0.611,0.398
				c-0.189,0.074-0.471,0.16-0.99,0.186c-0.563,0.025-0.732,0.029-2.156,0.029c-1.424,0-1.593-0.004-2.155-0.029
				c-0.52-0.025-0.802-0.111-0.99-0.186c-0.249-0.096-0.427-0.211-0.613-0.398c-0.187-0.186-0.302-0.363-0.399-0.613
				c-0.073-0.188-0.16-0.469-0.184-0.99c-0.025-0.561-0.03-0.73-0.03-2.154s0.005-1.592,0.03-2.154
				c0.024-0.52,0.111-0.803,0.184-0.99C5.939,6.604,6.055,6.427,6.242,6.24c0.187-0.188,0.364-0.303,0.613-0.399
				c0.188-0.073,0.47-0.16,0.99-0.185c0.492-0.021,0.683-0.028,1.677-0.029V5.629z M12.848,6.514c-0.354,0-0.641,0.287-0.641,0.641
				c0,0.353,0.287,0.639,0.641,0.639s0.639-0.286,0.639-0.639C13.486,6.801,13.201,6.514,12.848,6.514L12.848,6.514z M10,7.262
				c-1.513,0-2.739,1.227-2.739,2.738c0,1.514,1.226,2.738,2.739,2.738c1.513,0,2.738-1.225,2.738-2.738
				C12.738,8.488,11.514,7.262,10,7.262L10,7.262z"/>
			<path id="Shape" fill="#3A3A3A" d="M10,8.223c0.982,0,1.777,0.796,1.777,1.777c0,0.982-0.795,1.777-1.777,1.777
				c-0.982,0-1.777-0.795-1.777-1.777C8.223,9.019,9.018,8.223,10,8.223L10,8.223z"/>
		</g>
	</g>
</g>
</svg>
