<?xml version="1.0" standalone="no"?>
<!DOCTYPE svg PUBLIC "-//W3C//DTD SVG 20010904//EN"
 "http://www.w3.org/TR/2001/REC-SVG-20010904/DTD/svg10.dtd">
<svg version="1.0" xmlns="http://www.w3.org/2000/svg"
 width="870.000000pt" height="890.000000pt" viewBox="0 0 870.000000 890.000000"
 preserveAspectRatio="xMidYMid meet">

<g transform="translate(0.000000,890.000000) scale(0.100000,-0.100000)"
fill="#000000" stroke="none">
<path d="M2085 8871 c-259 -57 -411 -200 -446 -422 -16 -97 -25 -115 -34 -65
-10 50 2 186 20 239 16 47 11 65 -6 21 -22 -57 -40 -168 -34 -206 4 -21 4 -38
1 -38 -3 0 -29 21 -57 46 -52 46 -133 88 -153 80 -6 -2 -4 -5 4 -5 8 -1 28
-10 45 -21 l29 -19 -85 6 c-73 5 -96 2 -155 -17 -104 -34 -156 -64 -224 -127
-74 -68 -101 -119 -198 -375 -88 -230 -99 -250 -143 -264 -76 -25 -77 -123 -5
-274 17 -35 17 -35 -39 -190 -107 -296 -101 -284 -145 -309 -45 -25 -54 -37
-15 -19 14 6 27 9 30 6 6 -6 -13 -62 -43 -128 -11 -25 -34 -86 -50 -136 -19
-58 -48 -118 -79 -165 -60 -89 -84 -135 -123 -237 -45 -114 -36 -110 25 13 29
61 66 124 80 140 l26 30 -5 -60 c-3 -33 -19 -91 -35 -130 -35 -81 -41 -121 -8
-55 l22 45 3 -100 c6 -193 -21 -342 -98 -543 -47 -121 -27 -94 31 43 l54 127
3 -104 3 -103 -56 -110 c-30 -60 -66 -150 -80 -198 -24 -87 -51 -264 -42 -274
3 -2 8 22 12 54 13 113 21 115 34 8 26 -212 55 -368 106 -585 29 -124 52 -238
49 -255 -7 -56 -14 -340 -8 -327 10 22 24 13 24 -17 0 -16 -6 -31 -12 -34 -21
-6 -14 -178 11 -272 25 -91 109 -269 182 -380 62 -96 222 -297 306 -384 62
-65 63 -67 63 -122 0 -54 2 -58 28 -67 18 -6 34 -22 42 -42 9 -23 15 -28 21
-18 6 8 9 -3 9 -29 0 -23 6 -48 14 -55 8 -8 11 -27 8 -55 -3 -33 -1 -44 12
-49 17 -7 23 -44 6 -44 -5 0 -10 -9 -10 -20 0 -11 6 -20 14 -20 10 0 17 -16
22 -45 5 -39 9 -45 25 -40 11 4 19 2 19 -4 0 -15 33 -14 49 1 8 7 11 9 8 3 -3
-6 21 -10 64 -10 40 0 73 -5 81 -13 19 -19 38 -14 38 11 l1 22 21 -25 20 -25
17 25 c9 14 26 34 39 46 12 12 22 29 22 38 0 9 5 16 10 16 6 0 10 9 10 19 0
11 6 22 13 25 9 5 9 7 0 12 -7 3 -13 14 -13 25 0 10 -4 19 -10 19 -5 0 -10
-13 -10 -30 0 -16 -5 -30 -11 -30 -6 0 -9 7 -5 15 3 8 -3 19 -12 25 -12 8 -14
13 -4 16 6 3 12 15 12 26 0 18 1 18 16 3 9 -9 23 -14 31 -11 8 3 17 6 19 6 3
0 2 5 -1 10 -15 24 14 7 49 -29 26 -26 36 -44 30 -53 -6 -11 -5 -11 8 0 10 8
19 9 22 3 3 -5 2 -11 -4 -13 -16 -5 -21 -48 -14 -125 4 -47 10 -70 17 -66 10
6 8 -16 -7 -86 -7 -29 -16 -40 -16 -18 0 10 -8 17 -17 17 -16 0 -16 -2 -3 -11
13 -9 13 -10 0 -6 -8 2 -16 8 -16 13 -8 52 -15 57 -77 50 -33 -3 -68 -6 -78
-6 -21 0 -27 -36 -7 -42 7 -3 5 -12 -8 -26 -15 -18 -18 -35 -16 -84 4 -65 -3
-78 -45 -78 -13 0 -23 -4 -23 -10 0 -5 9 -10 20 -10 11 0 20 -4 20 -10 0 -5
-11 -10 -24 -10 -19 0 -24 -6 -30 -38 -3 -20 -6 -58 -6 -84 0 -32 -4 -48 -12
-48 -9 0 -10 -3 -2 -8 29 -19 27 -232 -2 -232 -9 0 -14 -11 -14 -31 0 -16 -5
-50 -11 -74 -9 -35 -8 -47 5 -66 8 -13 15 -28 15 -34 0 -5 15 -13 33 -18 86
-20 85 -19 63 -37 -12 -10 -15 -10 -15 0 0 20 -30 -9 -30 -29 -1 -9 -15 -25
-32 -36 -27 -18 -31 -26 -35 -79 -5 -70 -8 -77 -31 -70 -14 5 -15 4 -2 -5 13
-9 12 -13 -7 -26 -13 -9 -23 -23 -23 -31 0 -8 -9 -24 -20 -36 l-20 -22 0 23
c0 21 -3 23 -31 17 -17 -3 -38 -6 -45 -6 -21 0 -17 -30 8 -52 17 -14 22 -31
23 -66 2 -75 4 -82 21 -82 12 0 15 -7 11 -26 -3 -17 1 -29 13 -36 11 -7 15
-19 12 -37 l-6 -26 -7 25 c-5 15 -7 -16 -7 -73 1 -74 5 -100 16 -106 10 -6 11
-10 3 -15 -6 -4 -11 -1 -11 6 0 8 -5 6 -11 -4 -5 -10 -16 -18 -24 -18 -9 0
-12 -6 -9 -15 4 -10 0 -15 -14 -15 -12 0 -24 -4 -27 -10 -3 -5 -17 -10 -30
-10 -13 0 -27 -5 -30 -10 -4 -6 -22 -9 -41 -8 -53 3 -70 -22 -76 -109 -1 -24
-6 -32 -16 -28 -8 3 -19 2 -25 -2 -17 -11 -35 -14 -104 -20 -53 -4 -63 -8 -63
-24 0 -12 5 -16 15 -13 8 4 15 10 15 15 0 13 38 11 42 -2 3 -9 32 -9 113 -1
61 7 191 16 290 22 99 6 196 16 217 21 52 13 92 64 153 194 56 119 83 150 144
161 85 16 101 51 101 216 0 129 -8 97 240 943 32 110 66 237 75 281 10 45 21
87 24 93 5 8 48 -3 142 -37 74 -28 165 -59 202 -70 l69 -21 -39 34 c-45 39
-40 52 13 31 140 -55 382 -96 566 -96 l103 0 -41 19 c-23 10 -44 24 -48 29 -7
12 24 32 46 32 7 -1 0 -8 -17 -16 -16 -8 -22 -12 -12 -9 10 3 42 5 70 6 43 1
48 3 27 10 -19 6 -14 7 22 4 30 -2 49 0 52 8 6 15 36 -20 36 -42 0 -20 70
-268 140 -496 32 -104 64 -214 70 -244 16 -70 8 -170 -24 -300 -14 -57 -25
-105 -24 -106 2 -1 16 -9 33 -18 29 -15 30 -14 68 29 21 24 45 44 53 44 8 0
14 7 14 15 0 12 14 15 62 15 34 0 59 -3 55 -6 -6 -6 23 -44 34 -44 4 0 9 16
11 36 4 31 1 37 -25 50 -32 17 -57 12 -57 -11 0 -8 -9 -15 -20 -15 -21 0 -20
-4 -26 123 0 21 4 44 10 50 15 16 14 79 -1 94 -6 7 -19 13 -27 13 -9 0 -16 7
-16 15 0 8 -4 15 -10 15 -5 0 -10 9 -10 20 0 13 11 24 33 33 54 23 62 41 61
131 -2 159 -20 336 -34 336 -4 0 -6 8 -3 19 3 10 0 22 -6 25 -6 4 -11 23 -11
42 0 19 -5 34 -11 34 -5 0 -7 5 -4 10 3 6 1 10 -5 10 -6 0 -8 5 -5 10 3 6 -1
13 -9 16 -9 3 -14 9 -11 14 2 4 -6 21 -19 39 -13 17 -26 49 -30 71 -4 26 -12
41 -26 45 -17 5 -19 14 -16 79 2 40 11 87 20 104 9 17 16 41 16 53 0 18 2 19
15 9 13 -11 20 -8 42 18 25 31 53 42 53 22 0 -5 -5 -10 -12 -10 -6 0 -8 -3 -5
-7 14 -14 127 120 127 151 0 9 4 16 9 16 6 0 11 19 13 43 3 35 6 42 24 41 18
0 21 6 22 40 0 23 8 59 16 81 8 22 15 46 16 54 0 8 7 23 16 33 11 11 18 42 21
87 4 64 3 70 -21 88 -14 11 -28 32 -32 46 -3 15 -11 27 -16 27 -5 0 -8 24 -7
54 2 41 -2 58 -15 72 -14 14 -19 15 -26 4 -6 -10 -17 -5 -43 21 -31 31 -56 83
-71 151 -4 19 -13 28 -26 28 -15 0 -20 7 -20 28 0 15 -7 38 -16 51 -18 24 -27
123 -13 131 12 8 -12 80 -27 80 -10 0 -12 9 -7 32 4 22 3 29 -5 24 -7 -4 -13
-2 -13 3 -3 20 -4 26 -11 37 -9 13 -4 121 5 131 4 3 7 -6 7 -22 0 -16 3 -25 7
-21 11 11 13 39 3 51 -14 18 -23 85 -11 85 6 0 11 9 11 20 0 35 24 100 37 100
7 0 13 8 13 18 0 9 7 30 15 45 12 23 13 42 4 108 -7 48 -7 84 -2 92 5 6 9 24
8 39 -1 19 5 30 17 34 11 3 18 15 18 29 0 13 6 26 13 28 10 4 10 6 0 6 -9 1
-13 22 -13 71 0 66 2 71 26 82 15 7 27 23 31 40 3 16 10 31 14 34 5 3 9 30 9
60 0 43 4 56 20 66 11 7 20 22 20 33 0 12 4 25 9 30 5 6 11 41 14 78 5 56 4
68 -7 64 -11 -5 -12 1 -5 26 5 19 5 44 0 62 -14 46 -20 116 -10 109 5 -3 12 3
15 13 3 10 11 28 17 40 7 17 7 30 -1 49 -16 33 -5 50 17 30 27 -24 32 -8 10
30 -10 19 -19 43 -19 54 0 29 28 14 33 -18 2 -15 4 -3 3 26 0 28 -4 52 -8 52
-4 0 -5 7 -2 15 4 8 10 15 16 15 5 0 6 -5 3 -10 -3 -6 1 -17 9 -26 9 -9 14
-20 11 -25 -10 -15 12 -10 25 6 13 16 11 70 -10 215 -14 96 -7 147 43 350 l41
165 1 200 c0 110 -3 214 -8 230 -7 28 -6 29 8 11 24 -32 19 0 -19 117 -45 136
-82 208 -156 302 -79 99 -177 245 -274 411 l-76 130 35 68 c30 58 35 77 35
138 0 87 -18 128 -68 153 -41 21 -44 21 -89 23 -23 2 -33 8 -39 25 -4 12 -10
24 -14 27 -4 3 -26 41 -48 85 -110 216 -213 355 -393 529 -172 168 -296 243
-447 272 -97 18 -228 16 -327 -5z m437 -1034 c31 -20 66 -51 79 -69 12 -18 42
-54 65 -79 39 -43 64 -98 68 -154 1 -11 7 -19 12 -18 6 1 11 -5 11 -12 0 -10
-16 -2 -43 20 -23 19 -51 35 -61 35 -37 0 -64 13 -59 26 6 15 -5 16 -44 5 -14
-4 -36 -4 -49 1 -19 7 -29 4 -51 -17 -15 -14 -38 -25 -53 -25 -36 0 -96 -25
-124 -52 l-23 -21 -8 23 c-8 22 -10 21 -50 -27 -24 -27 -54 -56 -67 -63 -35
-19 -31 -29 14 -47 41 -16 73 -62 78 -111 1 -13 6 -38 11 -55 5 -18 10 -56 10
-85 1 -31 9 -65 19 -82 9 -16 14 -32 11 -35 -15 -15 -335 -51 -530 -60 -152
-7 -153 -7 -123 51 8 16 15 47 15 68 0 47 29 156 41 156 5 0 8 3 7 8 -9 25 54
122 79 122 7 0 13 5 13 10 0 6 0 12 0 15 0 3 -3 6 -7 7 -5 1 -19 16 -33 32
-13 16 -38 37 -54 47 -28 17 -30 17 -42 1 -11 -16 -14 -16 -31 0 -10 9 -35 23
-55 31 -43 18 -121 21 -111 4 4 -6 -8 -1 -26 12 -30 21 -33 22 -50 7 -10 -9
-30 -16 -45 -16 -20 0 -26 -4 -24 -17 2 -13 -3 -18 -19 -17 -13 0 -23 -3 -23
-8 0 -5 -4 -6 -10 -3 -5 3 -10 0 -10 -7 0 -7 -10 -24 -21 -38 l-21 -25 7 35
c3 19 8 57 11 83 6 60 19 96 38 103 8 3 24 21 35 39 22 38 148 134 201 152 22
9 38 9 44 3 6 -6 34 -10 64 -10 38 0 65 -6 88 -21 19 -11 38 -18 43 -15 5 3
12 -1 15 -9 3 -8 9 -14 13 -13 13 4 116 -33 151 -54 l32 -20 29 31 c16 17 36
32 45 32 29 3 88 26 96 38 3 5 25 18 50 31 25 12 53 31 63 41 10 11 31 19 47
19 17 0 30 5 30 10 0 6 11 10 24 10 14 0 28 5 31 10 4 6 31 9 63 7 44 -3 70
-12 114 -40z m293 -437 c9 -16 20 -30 25 -30 6 0 10 -6 10 -14 0 -8 16 -38 36
-67 20 -30 51 -84 70 -121 l33 -68 -49 0 c-48 0 -199 -44 -270 -80 -33 -16
-36 -16 -52 2 -10 10 -15 18 -10 19 17 2 -95 38 -120 38 -16 1 -28 6 -28 11 0
6 -7 10 -16 10 -8 0 -12 -5 -8 -11 4 -8 -1 -9 -17 -4 -14 5 0 -12 36 -42 33
-27 67 -58 75 -67 16 -20 13 -23 -51 -59 -25 -14 -29 -21 -20 -30 8 -8 16 -9
29 -1 83 50 81 50 97 29 22 -30 18 -40 -20 -58 -19 -9 -35 -23 -35 -32 0 -20
12 -19 55 6 41 25 46 22 48 -22 2 -30 -1 -32 -48 -46 -56 -17 -80 -32 -68 -44
5 -5 32 0 61 11 29 11 57 20 62 20 6 0 10 -18 10 -40 0 -36 -3 -41 -37 -55
-27 -12 -34 -18 -25 -27 9 -9 18 -9 37 0 23 11 25 10 25 -14 0 -21 -9 -29 -55
-49 -81 -36 -70 -64 12 -30 45 19 43 19 43 -8 0 -12 10 -50 22 -82 26 -71 40
-295 18 -295 -7 0 -10 -12 -9 -27 6 -63 -27 -123 -44 -80 -3 6 -6 -10 -6 -38
-1 -27 -6 -68 -12 -90 -10 -34 -13 -37 -20 -20 -4 11 -8 14 -8 7 -1 -7 -8 -29
-17 -50 -10 -20 -18 -43 -20 -49 -4 -21 -42 -78 -65 -99 -13 -10 -19 -14 -16
-7 4 6 3 14 -2 17 -5 3 -43 -29 -84 -71 -42 -43 -79 -75 -82 -71 -9 9 47 70
94 103 22 15 43 36 47 47 3 11 11 17 17 15 8 -3 13 9 14 30 l2 34 -31 -38
c-16 -21 -33 -42 -36 -48 -4 -5 -18 -19 -31 -30 l-24 -20 7 25 7 25 -20 -25
c-11 -14 -21 -29 -21 -33 0 -5 -4 -5 -10 -2 -11 7 -9 32 4 55 5 8 -11 -4 -35
-27 -25 -24 -47 -43 -51 -43 -3 0 -3 21 -1 48 l5 47 -37 -70 c-20 -38 -48 -81
-62 -95 l-24 -25 12 30 c7 17 17 36 22 43 7 9 5 11 -8 5 -15 -5 -17 -3 -11 13
14 36 19 74 9 74 -5 0 -22 -16 -38 -36 l-29 -36 -18 22 -18 22 0 -23 0 -22
-25 23 c-35 33 -44 16 -17 -31 12 -21 18 -39 12 -39 -5 0 -10 4 -10 8 0 8 -43
32 -56 32 -3 0 0 -9 6 -21 18 -32 5 -34 -34 -4 -20 15 -36 24 -36 20 0 -5 -9
2 -19 14 -10 12 -29 24 -41 26 -21 4 -21 3 5 -30 14 -19 23 -35 20 -35 -15 0
-52 25 -72 49 l-22 26 6 -25 c3 -14 11 -32 18 -40 25 -31 26 -38 4 -33 -20 6
-99 96 -99 114 0 5 -6 9 -13 9 -8 0 -19 10 -26 23 -9 17 -10 17 -5 2 3 -11 8
-26 11 -32 3 -7 0 -13 -6 -13 -12 0 -50 57 -82 124 -35 75 -16 62 25 -17 30
-56 37 -65 32 -38 -8 43 -59 148 -64 133 -6 -20 -21 -13 -17 8 2 11 0 22 -6
25 -5 4 -9 15 -9 26 0 11 -4 18 -10 14 -11 -7 -33 67 -55 184 -17 93 -19 169
-6 190 6 10 5 27 -5 49 -19 48 -18 52 16 52 40 0 38 17 -3 25 -17 4 -35 13
-39 19 -13 19 -9 46 7 46 22 0 18 21 -5 27 -27 7 -30 86 -4 81 25 -4 28 19 4
25 -15 4 -20 13 -20 36 0 26 4 31 25 31 30 0 33 16 4 25 -14 5 -19 14 -17 28
2 17 12 23 43 28 l40 6 -33 12 c-36 15 -36 22 -2 94 15 32 16 39 4 44 -17 6
-49 -29 -70 -74 -17 -39 -17 -39 -177 -13 -67 11 -136 23 -153 25 -32 5 -32 6
-30 58 3 56 13 82 56 137 26 33 70 144 70 174 0 8 4 17 9 21 14 8 78 -33 127
-81 54 -52 141 -79 232 -72 l60 4 -21 -40 c-17 -32 -22 -64 -25 -149 -7 -180
14 -210 211 -302 51 -23 117 -48 147 -54 49 -11 62 -10 113 8 80 28 211 107
266 161 36 35 52 61 69 113 12 37 22 84 22 105 -1 47 -25 151 -39 165 -24 24
-12 46 27 52 136 22 184 36 225 64 40 27 99 86 108 108 4 9 89 62 101 63 4 0
14 -13 23 -30z m-188 -32 c7 -6 13 -14 13 -18 0 -11 -57 -68 -79 -80 -15 -8
-17 -5 -13 16 6 34 -16 82 -42 90 -20 7 -20 8 4 14 28 7 98 -6 117 -22z m-119
-21 c2 -10 -3 -17 -12 -17 -18 0 -29 16 -21 31 9 14 29 6 33 -14z m-1099 -66
c-17 -23 -21 -39 -16 -71 5 -38 4 -40 -16 -34 -27 8 -67 43 -67 59 0 17 41 51
75 63 45 16 47 14 24 -17z m1019 -38 c14 -11 11 -13 -16 -13 -31 0 -32 1 -32
43 l1 42 15 -30 c9 -16 23 -36 32 -42z m-930 24 c2 -12 -3 -17 -17 -17 -12 0
-21 6 -21 13 0 31 32 34 38 4z m62 -78 c0 -15 -7 -29 -16 -33 -29 -11 -35 -6
-20 16 9 12 16 34 16 48 0 20 2 22 10 10 5 -8 10 -27 10 -41z m1432 -151 c6
-43 -14 -68 -52 -68 -19 0 -80 -12 -135 -26 -55 -14 -108 -26 -117 -27 -10 -1
-18 -5 -18 -10 0 -4 -6 -2 -14 5 -8 7 -12 17 -9 22 3 4 9 3 13 -4 6 -10 9 -9
15 0 8 13 -14 32 -27 24 -4 -3 -8 -1 -8 4 0 9 126 70 185 90 17 6 60 11 97 11
62 1 67 -1 70 -21z m-32 -113 c11 -13 10 -14 -2 -10 -14 6 -21 -2 -28 -30 -4
-14 -40 -38 -47 -31 -3 3 -11 2 -17 -3 -19 -15 -69 -23 -61 -10 5 7 1 9 -12 5
-12 -4 -25 -1 -33 9 -7 8 -21 15 -31 15 -10 0 -21 5 -25 12 -4 7 -3 8 4 4 7
-4 12 -3 12 2 0 13 75 34 150 42 36 4 68 8 71 9 4 0 12 -6 19 -14z m-1749 -81
c103 -17 121 -26 99 -48 -12 -11 -42 -13 -142 -9 -114 5 -128 8 -128 24 0 9
-3 24 -6 33 -8 21 51 21 177 0z m2019 -36 c0 -7 3 -24 7 -38 9 -36 -6 -19 -17
19 -5 19 -5 31 1 31 5 0 9 -6 9 -12z m-2034 -59 c2 -5 -25 -8 -61 -8 -36 1
-65 5 -65 10 0 12 119 9 126 -2z m-199 -21 c-3 -8 -6 -5 -6 6 -1 11 2 17 5 13
3 -3 4 -12 1 -19z m-10 -50 c-3 -8 -6 -5 -6 6 -1 11 2 17 5 13 3 -3 4 -12 1
-19z m-10 -95 c-3 -10 -5 -4 -5 12 0 17 2 24 5 18 2 -7 2 -21 0 -30z m43 -19
c0 -8 -5 -12 -10 -9 -6 4 -8 11 -5 16 9 14 15 11 15 -7z m-13 -116 c-2 -18 -4
-6 -4 27 0 33 2 48 4 33 2 -15 2 -42 0 -60z m47 -417 c-6 -6 -11 1 -18 29 l-7
25 15 -25 c8 -14 12 -27 10 -29z m1447 -358 c-12 -23 -61 -69 -61 -58 0 8 60
75 67 75 2 0 -1 -8 -6 -17z m-236 -83 c-30 -44 -42 -53 -24 -17 23 42 42 68
47 62 3 -2 -8 -23 -23 -45z m-155 0 c-12 -30 -21 -36 -33 -24 -7 7 35 64 42
58 2 -2 -2 -17 -9 -34z m80 -15 c-7 -9 -15 -13 -17 -11 -7 7 7 26 19 26 6 0 6
-6 -2 -15z m1567 -547 c-3 -7 -5 -2 -5 12 0 14 2 19 5 13 2 -7 2 -19 0 -25z
m-200 -1660 c-3 -8 -6 -5 -6 6 -1 11 2 17 5 13 3 -3 4 -12 1 -19z m183 -788
c14 0 17 -5 12 -22 l-5 -21 -19 22 c-10 13 -18 28 -17 35 0 7 2 7 6 -1 2 -7
13 -13 23 -13z m-2568 -127 c15 -14 21 -15 27 -4 5 7 17 11 27 8 17 -4 17 -6
-3 -12 -17 -5 -23 -15 -23 -36 0 -16 5 -29 10 -29 6 0 10 -9 10 -19 0 -11 3
-21 8 -24 4 -2 0 -1 -8 1 -8 3 -25 5 -37 5 -13 -1 -23 5 -23 13 0 8 -4 14 -9
14 -10 0 -31 54 -31 81 0 24 27 25 52 2z m114 -190 c-4 -9 -1 -20 5 -24 8 -4
5 -13 -10 -28 -11 -11 -21 -18 -21 -13 0 16 21 82 27 82 3 0 2 -8 -1 -17z
m137 -23 c-3 -11 -9 -20 -14 -20 -5 0 -9 9 -9 20 0 11 6 20 14 20 9 0 12 -7 9
-20z m1762 -190 c3 -5 1 -10 -4 -10 -6 0 -11 5 -11 10 0 6 2 10 4 10 3 0 8 -4
11 -10z m35 -26 c0 -8 -4 -12 -10 -9 -5 3 -10 10 -10 16 0 5 5 9 10 9 6 0 10
-7 10 -16z m-1730 -14 c0 -5 -7 -10 -16 -10 -8 0 -12 5 -9 10 3 6 10 10 16 10
5 0 9 -4 9 -10z m1736 -52 c8 -16 10 -28 5 -28 -5 0 -13 9 -16 20 -4 11 -10
18 -14 16 -4 -3 -8 7 -9 22 -2 29 4 23 34 -30z m-196 -48 c8 -5 11 -10 5 -10
-5 0 -17 5 -25 10 -8 5 -10 10 -5 10 6 0 17 -5 25 -10z m-1663 -82 c-3 -8 -6
-5 -6 6 -1 11 2 17 5 13 3 -3 4 -12 1 -19z m2233 -978 c0 -20 -25 -38 -37 -26
-5 5 24 46 34 46 1 0 3 -9 3 -20z m-2483 -76 c-3 -3 -12 -4 -19 -1 -8 3 -5 6
6 6 11 1 17 -2 13 -5z m-22 -24 c3 -5 1 -10 -4 -10 -6 0 -11 5 -11 10 0 6 2
10 4 10 3 0 8 -4 11 -10z m292 -45 c21 -22 9 -30 -16 -13 -12 8 -18 18 -14 21
9 10 13 9 30 -8z m103 -34 c0 -17 -15 -19 -35 -5 -18 13 -18 14 8 14 15 0 27
-4 27 -9z m-305 -315 c0 -15 -5 -22 -12 -19 -14 6 -17 25 -6 36 12 13 18 7 18
-17z"/>
<path d="M2600 6439 c0 -5 5 -7 10 -4 6 3 10 8 10 11 0 2 -4 4 -10 4 -5 0 -10
-5 -10 -11z"/>
<path d="M2530 6394 c-24 -21 -41 -34 -37 -27 5 8 -11 7 -55 -4 -35 -8 -71
-16 -81 -18 -9 -2 -22 -7 -29 -11 -18 -11 -59 -13 -52 -2 4 6 -5 8 -23 5 -49
-8 -233 26 -248 46 -15 21 -23 22 -27 1 -2 -9 -30 -27 -62 -40 -63 -25 -81
-30 -56 -14 9 6 10 10 3 10 -6 0 -15 -5 -19 -11 -3 -6 -17 -8 -29 -5 -13 3
-27 2 -30 -4 -3 -5 -15 -10 -26 -10 -11 0 -18 -4 -15 -9 3 -5 -4 -9 -17 -9
-76 0 -139 -28 -99 -44 11 -4 6 -7 -16 -7 -18 -1 -31 2 -29 7 3 4 -10 7 -29 8
-39 1 -44 -8 -11 -24 45 -22 85 -22 212 3 105 20 182 27 395 36 146 5 283 15
304 20 43 12 106 55 106 72 0 6 10 22 23 35 12 14 17 22 10 19 -6 -4 -13 -2
-15 5 -3 7 -22 -5 -48 -28z m10 -28 c0 -2 -7 -7 -16 -10 -8 -3 -12 -2 -9 4 6
10 25 14 25 6z"/>
<path d="M1629 5852 c5 -10 17 -25 26 -32 13 -11 13 -8 -2 18 -19 33 -41 46
-24 14z"/>
<path d="M2060 5669 c0 -5 5 -7 10 -4 6 3 10 8 10 11 0 2 -4 4 -10 4 -5 0 -10
-5 -10 -11z"/>
<path d="M141 6134 c0 -11 3 -14 6 -6 3 7 2 16 -1 19 -3 4 -6 -2 -5 -13z"/>
<path d="M232 6120 c0 -14 2 -19 5 -12 2 6 2 18 0 25 -3 6 -5 1 -5 -13z"/>
<path d="M4306 3911 c-4 -6 -11 -9 -15 -7 -4 3 -8 -1 -8 -9 0 -11 4 -12 14 -3
7 6 16 9 18 6 5 -4 -17 -29 -49 -56 -27 -22 -30 -63 -14 -198 12 -95 14 -144
7 -175 -11 -47 5 -179 22 -179 5 0 9 -12 9 -27 0 -16 7 -65 15 -111 11 -63 12
-89 3 -107 -6 -14 -15 -25 -20 -25 -16 0 -8 -114 11 -155 11 -22 20 -32 20
-22 2 46 47 -3 66 -73 1 -3 5 -12 8 -20 4 -8 8 -24 10 -35 2 -11 9 -33 15 -48
14 -34 15 -50 3 -42 -6 3 -6 -8 0 -27 6 -18 19 -73 29 -122 10 -48 21 -91 24
-94 3 -3 3 26 -1 64 -3 38 -5 81 -5 96 1 15 -3 30 -8 33 -17 10 -11 25 13 36
12 6 28 23 35 38 20 46 86 67 97 31 5 -16 15 -20 54 -20 46 0 48 -1 43 -25 -2
-14 -8 -25 -12 -25 -5 0 -8 -16 -7 -35 2 -36 22 -48 30 -17 3 9 5 0 6 -20 1
-51 21 -49 21 2 0 33 3 40 20 40 17 0 20 -7 20 -40 0 -24 5 -40 12 -40 6 0 3
-9 -7 -20 -18 -19 -17 -20 3 -20 11 0 23 -6 25 -12 4 -10 6 -10 6 0 1 7 14 12
32 12 30 0 31 -1 24 -40 -6 -34 -4 -40 12 -41 16 0 16 -1 -2 -9 -20 -8 -20 -9
1 -9 11 -1 24 2 28 6 4 5 12 9 17 9 22 3 23 6 4 14 -19 8 -19 9 3 9 12 1 22
-3 22 -9 0 -5 19 0 43 10 33 16 41 24 39 42 -2 21 -2 21 11 4 12 -17 14 -17
28 0 12 16 12 17 -1 9 -8 -4 -12 -4 -7 0 11 13 47 16 47 5 0 -6 6 -10 13 -10
6 0 48 -64 91 -143 150 -268 301 -474 445 -609 61 -57 100 -82 206 -134 71
-36 137 -70 146 -77 35 -27 150 -251 207 -401 19 -53 27 -65 32 -50 4 10 3 29
-3 41 -8 18 -6 27 6 41 10 10 17 28 17 40 0 27 11 28 30 2 8 -11 22 -20 31
-20 10 0 19 -11 22 -30 4 -18 13 -30 22 -30 18 0 19 14 4 42 -8 14 -8 23 0 31
6 6 11 19 11 29 0 10 5 18 10 18 6 0 10 9 10 20 0 11 -4 20 -10 20 -5 0 -10 5
-10 10 0 12 69 10 76 -2 11 -18 42 -7 46 16 8 41 -3 86 -21 87 -13 0 -13 2 -1
6 27 10 50 36 50 56 0 11 -9 35 -21 53 -11 19 -17 34 -13 34 4 0 -10 13 -32
29 -21 16 -42 28 -45 25 -15 -9 -18 59 -4 86 8 16 15 36 15 45 0 8 6 15 14 15
8 0 17 6 19 13 3 6 6 -4 7 -23 l2 -35 11 40 12 39 23 -34 23 -35 -4 35 c-7 55
-43 140 -70 163 -14 12 -32 36 -40 53 -9 17 -23 36 -31 43 -10 9 -14 22 -10
37 4 15 2 24 -5 24 -7 0 -11 31 -11 89 0 69 -4 93 -16 106 -9 8 -16 31 -16 50
0 27 -4 35 -18 35 -19 0 -30 -19 -30 -52 0 -10 -7 -26 -15 -34 -8 -9 -15 -24
-15 -35 0 -11 -4 -17 -10 -14 -5 3 -10 21 -10 39 0 24 -9 40 -35 63 l-35 31
-31 -29 c-36 -34 -53 -37 -46 -9 4 17 2 20 -14 15 -13 -4 -19 -2 -19 9 0 9 -9
16 -20 16 -11 0 -20 -7 -20 -15 0 -8 -9 -15 -20 -15 -16 0 -20 7 -20 31 0 17
-4 28 -10 24 -5 -3 -10 -16 -10 -28 -1 -28 -23 -57 -44 -57 -9 0 -16 -4 -16
-10 0 -5 -4 -10 -10 -10 -5 0 -10 11 -10 24 0 14 -10 33 -24 43 -30 24 -43 78
-23 90 19 10 26 88 9 105 -17 17 -15 47 3 54 8 4 15 15 15 25 0 14 -7 19 -30
19 -28 0 -30 3 -30 36 0 28 5 37 21 41 19 5 20 11 15 57 -3 28 -6 56 -7 62 -1
6 -13 8 -27 6 -22 -4 -24 -2 -20 20 4 21 1 24 -19 20 -24 -4 -29 9 -24 64 1
15 -4 21 -16 20 -18 -1 -41 56 -42 107 -1 16 -10 42 -22 58 -11 16 -16 29 -10
29 6 0 11 9 11 20 0 11 -4 20 -10 20 -5 0 -10 9 -10 20 0 16 7 20 30 20 23 0
30 5 30 19 0 11 -9 23 -20 26 -13 4 -20 15 -20 32 0 20 -4 24 -17 19 -16 -6
-16 -6 0 12 9 10 17 25 17 33 -1 18 -65 50 -85 43 -18 -7 -20 12 -2 20 6 3 2
3 -10 0 -13 -3 -23 -1 -23 5 0 6 -9 11 -20 11 -16 0 -20 7 -20 30 0 27 -3 30
-34 30 -19 0 -37 6 -39 13 -4 9 -6 9 -6 -1 -1 -9 -14 -3 -36 16 -25 20 -43 28
-60 24 -18 -3 -25 0 -25 12 0 9 8 16 20 16 11 0 20 5 20 10 0 6 -4 10 -8 10
-5 0 -24 14 -42 30 -36 32 -64 37 -102 18 -20 -11 -23 -18 -17 -47 7 -33 6
-33 -23 -27 -17 3 -34 6 -38 6 -13 0 -30 51 -30 93 0 23 -4 48 -9 55 -4 7 -5
31 -1 53 4 21 3 39 -1 39 -5 0 -9 9 -9 20 0 11 -4 20 -10 20 -5 0 -10 15 -10
34 0 40 -2 42 -55 50 -36 6 -41 4 -52 -19 -6 -14 -7 -25 -2 -25 5 0 9 -9 9
-20 0 -11 -4 -20 -10 -20 -5 0 -10 -9 -10 -20 0 -11 -4 -20 -10 -20 -9 0 -26
25 -29 42 -6 35 -29 52 -55 42 -10 -4 -13 -18 -11 -45 3 -29 0 -39 -11 -39 -8
0 -17 7 -21 16 -6 15 -8 15 -20 -2 -11 -15 -15 -16 -22 -5 -10 16 -47 10 -43
-8 2 -9 -3 -9 -18 -1 -11 6 -20 16 -20 22 0 7 -5 6 -15 -2 -12 -10 -13 -16 -4
-26 6 -8 9 -14 7 -14 -3 0 -26 28 -52 61 -27 34 -51 58 -55 53 -3 -5 -18 -10
-32 -11 -19 -1 -30 5 -38 23 -9 22 -34 31 -66 24 -41 -8 -101 -7 -106 2 -4 7
-9 7 -13 -1z m616 -1118 c-6 -2 -10 -9 -7 -14 4 -5 -1 -6 -10 -2 -13 5 -14 7
-3 14 7 5 18 8 23 8 6 0 4 -3 -3 -6z m-112 -15 c0 -6 -3 -8 -7 -5 -3 4 -12 2
-19 -4 -8 -7 -25 -8 -41 -4 -26 7 -26 8 -8 15 30 13 75 12 75 -2z m-155 -48
c-10 -11 -27 -20 -37 -20 -16 0 -17 2 -6 13 29 29 68 35 43 7z m65 -3 c0 -34
-19 -47 -69 -47 l-46 0 42 22 c23 12 40 25 37 29 -4 7 11 16 29 18 4 1 7 -9 7
-22z m1640 -587 c0 -22 -4 -40 -10 -40 -5 0 -10 18 -10 40 0 22 5 40 10 40 6
0 10 -18 10 -40z m-15 -910 c3 -5 -1 -10 -9 -10 -9 0 -16 5 -16 10 0 6 4 10 9
10 6 0 13 -4 16 -10z m45 0 c0 -5 -4 -10 -10 -10 -5 0 -10 5 -10 10 0 6 5 10
10 10 6 0 10 -4 10 -10z"/>
<path d="M5120 3811 c0 -17 2 -31 4 -31 8 0 13 51 5 56 -5 3 -9 -9 -9 -25z"/>
<path d="M5106 3698 c3 -4 14 -8 25 -8 11 0 18 4 14 9 -3 6 -14 9 -25 8 -10
-1 -16 -5 -14 -9z"/>
<path d="M5136 3645 c9 -14 19 -23 22 -21 2 3 13 1 23 -4 12 -7 20 -6 25 2 4
6 3 8 -4 4 -6 -3 -14 0 -19 7 -8 13 -45 37 -58 37 -3 0 2 -11 11 -25z"/>
<path d="M5759 3024 c1 -24 7 -44 12 -44 14 0 11 66 -4 78 -9 8 -11 1 -8 -34z"/>
<path d="M7920 2396 c-151 -62 -233 -114 -331 -212 -71 -69 -88 -93 -136 -192
-30 -63 -56 -125 -57 -138 0 -13 -8 -27 -16 -30 -33 -15 -182 -2 -255 21 -41
14 -86 24 -102 23 -79 -2 -203 29 -203 51 0 5 -20 20 -45 32 -25 12 -54 31
-65 42 -12 10 -41 27 -65 38 -41 18 -45 23 -45 54 0 36 -20 55 -59 55 -14 0
-21 6 -21 19 0 10 -7 24 -16 31 -8 8 -21 28 -29 47 -8 18 -20 33 -27 32 -10 0
-10 -2 0 -6 7 -3 12 -25 12 -61 0 -31 5 -64 10 -72 8 -12 10 -11 10 8 0 12 3
22 6 22 12 0 34 -29 34 -45 0 -8 7 -31 14 -50 8 -19 13 -35 11 -35 -9 0 -55
48 -55 58 0 6 -4 13 -9 17 -6 3 -6 -5 -1 -22 14 -47 22 -63 31 -63 5 0 9 -9 9
-20 0 -11 5 -20 10 -20 6 0 10 10 10 23 1 21 1 21 11 3 9 -14 8 -20 -1 -26
-26 -16 -1 -44 36 -39 3 0 16 -11 28 -24 24 -26 111 -84 175 -116 51 -26 276
-88 496 -137 291 -64 352 -73 487 -74 149 0 212 16 316 79 72 45 149 107 119
97 -29 -10 -127 -19 -127 -13 0 3 22 33 50 66 63 76 135 130 285 215 66 38
122 71 125 73 3 3 -17 3 -45 0 -176 -20 -166 -21 -156 5 19 53 126 110 276
147 l70 17 -80 27 c-135 44 -204 57 -322 57 -118 0 -190 -13 -310 -55 -40 -14
-78 -25 -84 -25 -12 0 27 56 74 108 36 37 31 38 -43 8z"/>
<path d="M6006 2375 c4 -8 10 -15 16 -15 5 0 16 7 24 15 14 13 12 15 -15 15
-23 0 -29 -4 -25 -15z"/>
<path d="M4824 2341 c7 -11 -7 -14 -144 -36 -58 -9 -125 -20 -150 -24 -25 -4
-44 -12 -43 -18 7 -32 15 -207 10 -203 -3 3 -7 24 -8 47 -2 30 -6 40 -16 36
-8 -3 -12 -11 -10 -17 3 -6 1 -33 -3 -59 -5 -33 -3 -47 5 -47 16 0 35 -89 35
-166 0 -70 -15 -90 -16 -22 -2 133 -4 148 -18 148 -10 0 -15 -11 -14 -38 0
-21 -2 -59 -5 -83 -5 -34 -4 -38 3 -19 7 18 8 3 5 -50 -7 -106 -15 -162 -25
-185 -9 -20 -18 -60 -24 -105 -2 -14 -9 -38 -15 -55 -6 -16 -13 -66 -17 -109
-3 -44 -9 -73 -14 -66 -12 19 -23 -92 -24 -242 -1 -75 -4 -139 -8 -143 -3 -4
-4 -23 -1 -42 4 -25 3 -34 -5 -29 -6 3 -14 0 -19 -7 -4 -8 -15 -17 -23 -20 -9
-3 -6 -6 10 -6 l24 -1 -22 -16 c-18 -12 -20 -19 -11 -35 10 -19 9 -20 -11 -9
-19 10 -180 11 -180 2 0 -2 16 -32 35 -67 28 -52 33 -68 26 -93 -5 -16 -5 -35
-1 -43 5 -7 6 -18 3 -24 -3 -5 0 -4 8 3 7 6 12 28 11 47 -3 47 13 74 53 91 81
33 132 8 179 -88 l32 -66 23 66 c77 220 171 450 248 612 86 182 88 186 88 260
0 41 -9 111 -19 155 -15 63 -19 115 -19 250 1 190 11 253 67 411 20 54 36 102
36 107 0 4 -9 7 -21 7 -11 0 -18 -4 -15 -9z"/>
<path d="M6560 1370 c0 -5 -10 -10 -22 -11 -20 -1 -19 -2 6 -9 20 -6 32 -5 42
5 19 19 18 25 -6 25 -11 0 -20 -4 -20 -10z"/>
<path d="M6411 1169 c-12 -26 -11 -32 4 -50 10 -10 24 -19 32 -19 7 0 13 -9
13 -20 0 -15 7 -20 25 -20 19 0 25 5 25 23 -1 27 -33 67 -55 67 -11 0 -15 7
-13 22 5 33 -16 32 -31 -3z"/>
<path d="M3702 1183 c-20 -4 -21 -7 -10 -21 10 -12 10 -14 1 -8 -7 4 -13 2
-13 -3 0 -17 25 -13 43 7 18 20 22 33 10 31 -5 -1 -18 -4 -31 -6z"/>
<path d="M1178 1143 c-10 -3 -18 -8 -18 -13 0 -13 33 -21 44 -10 13 13 -3 28
-26 23z"/>
<path d="M4305 1070 c-3 -5 -1 -10 4 -10 6 0 11 5 11 10 0 6 -2 10 -4 10 -3 0
-8 -4 -11 -10z"/>
<path d="M6330 920 c0 -11 -3 -20 -7 -20 -5 0 -9 -43 -10 -96 -2 -76 1 -102
14 -125 10 -16 21 -29 25 -29 4 0 5 -6 3 -13 -3 -6 4 -18 15 -24 16 -11 21
-10 29 6 14 25 72 51 116 51 40 0 68 -12 102 -43 17 -15 26 -17 36 -8 8 6 35
15 60 20 44 8 67 3 130 -30 11 -6 17 -5 17 3 0 15 -60 68 -77 68 -18 0 -93 38
-111 56 -7 8 -17 14 -21 14 -15 0 -51 38 -51 54 0 9 -8 16 -20 16 -11 0 -20
-6 -20 -12 0 -14 -43 -68 -54 -68 -3 0 -6 11 -6 25 0 14 -8 29 -20 35 -12 6
-20 21 -20 35 0 22 -5 25 -34 25 -30 0 -34 2 -28 23 5 22 5 22 -16 3 l-22 -19
0 36 c0 26 -4 37 -15 37 -8 0 -15 -9 -15 -20z m87 -152 c-3 -8 -6 -5 -6 6 -1
11 2 17 5 13 3 -3 4 -12 1 -19z"/>
<path d="M6718 916 c-4 -17 -1 -23 9 -19 9 3 13 -3 13 -20 0 -14 5 -29 10 -32
6 -3 10 -1 10 6 0 7 10 3 23 -9 28 -27 41 -28 33 -4 -6 16 -5 16 8 0 7 -10 21
-18 31 -18 16 0 16 2 2 23 -8 13 -17 34 -19 48 -2 16 -8 23 -21 21 -10 -2 -16
3 -15 10 2 9 -11 14 -38 16 -37 3 -42 0 -46 -22z"/>
<path d="M992 800 c0 -14 2 -19 5 -12 2 6 2 18 0 25 -3 6 -5 1 -5 -13z"/>
<path d="M960 770 c0 -5 5 -10 10 -10 6 0 10 5 10 10 0 6 -4 10 -10 10 -5 0
-10 -4 -10 -10z"/>
<path d="M614 666 c-45 -52 -69 -99 -60 -121 5 -14 12 -11 37 21 17 22 37 51
45 66 7 14 27 37 43 50 l30 23 -30 1 c-23 1 -38 -8 -65 -40z"/>
<path d="M6973 628 c-19 -24 -10 -46 25 -62 33 -16 34 -16 27 1 -4 10 -12 30
-17 46 -11 30 -20 34 -35 15z"/>
<path d="M3462 600 c-35 -44 -16 -58 24 -19 19 18 34 37 34 41 0 19 -37 5 -58
-22z"/>
<path d="M3824 605 c3 -10 -1 -15 -12 -15 -15 0 -15 -2 -2 -10 11 -7 19 -5 28
7 16 23 15 33 -4 33 -10 0 -14 -6 -10 -15z"/>
<path d="M6850 577 c0 -9 4 -18 9 -21 5 -4 8 1 7 9 -3 21 -16 31 -16 12z"/>
<path d="M6583 218 c-13 -6 -23 -17 -23 -24 0 -18 -125 -15 -166 4 -27 12 -36
13 -62 1 -32 -14 -42 -53 -16 -63 17 -6 17 -1 4 25 -11 20 3 28 15 9 3 -6 17
-7 31 -4 16 4 26 1 30 -9 3 -9 26 -24 50 -33 56 -21 108 -13 145 22 l27 26 31
-23 c19 -14 49 -24 83 -27 45 -3 59 0 91 22 l37 25 36 -24 c42 -29 98 -33 132
-9 12 8 22 19 22 23 0 5 -29 11 -64 13 -36 3 -78 14 -95 24 -31 18 -33 18 -62
1 -17 -9 -47 -17 -67 -17 -43 1 -115 25 -120 40 -5 13 -30 12 -59 -2z"/>
<path d="M481 197 c0 -10 4 -27 9 -38 7 -13 7 -19 0 -19 -5 0 -10 -9 -10 -20
0 -11 5 -20 12 -20 6 0 35 -11 64 -25 55 -26 79 -25 86 3 7 26 -2 42 -23 42
-10 0 -19 4 -19 9 0 5 -11 12 -25 15 -13 3 -29 15 -35 25 -6 12 -17 17 -29 14
-13 -3 -21 1 -24 14 -4 17 -5 17 -6 0z"/>
<path d="M225 147 c-11 -17 -26 -27 -41 -27 -13 0 -24 -4 -24 -10 0 -5 -9 -10
-19 -10 -11 0 -23 -4 -26 -10 -8 -14 21 -13 48 1 12 7 19 8 15 4 -26 -27 60
-47 93 -22 15 11 15 16 -6 57 l-22 44 -18 -27z"/>
<path d="M3785 133 c-26 -40 -66 -73 -86 -73 -12 0 -19 -7 -19 -20 0 -13 -7
-20 -20 -20 -14 0 -20 7 -20 24 0 21 -4 24 -27 21 -29 -3 -72 16 -110 49 -19
16 -25 17 -38 6 -8 -7 -18 -10 -21 -7 -11 10 -32 -18 -30 -41 1 -30 19 -32 31
-4 12 28 21 28 48 -2 41 -43 84 -58 156 -54 70 4 141 31 141 54 0 19 36 18 43
-1 9 -21 85 -57 110 -52 22 4 22 4 0 6 -13 0 -23 7 -23 14 0 12 -104 127 -114
127 -2 0 -12 -12 -21 -27z"/>
<path d="M4087 101 c-26 -27 -61 -51 -76 -54 -16 -3 -31 -13 -34 -21 -5 -13 1
-16 28 -16 45 0 84 16 117 47 l27 26 36 -32 c36 -32 55 -39 55 -21 0 6 -9 10
-19 10 -13 0 -21 9 -26 30 -4 16 -12 28 -18 27 -7 -1 -13 10 -15 26 -5 38 -20
34 -75 -22z"/>
<path d="M384 113 c-20 -4 -39 -45 -26 -58 9 -9 65 -5 107 6 l40 12 -32 15
c-18 9 -33 19 -33 24 0 8 -18 9 -56 1z"/>
<path d="M3360 51 c0 -5 7 -12 16 -15 22 -9 24 -8 24 9 0 8 -9 15 -20 15 -11
0 -20 -4 -20 -9z"/>
<path d="M4235 50 c3 -5 10 -10 16 -10 5 0 9 5 9 10 0 6 -7 10 -16 10 -8 0
-12 -4 -9 -10z"/>
<path d="M4258 13 c7 -3 16 -2 19 1 4 3 -2 6 -13 5 -11 0 -14 -3 -6 -6z"/>
</g>
</svg>
