<?xml version="1.0" encoding="utf-8"?>
<!-- Generator: Adobe Illustrator 16.0.0, SVG Export Plug-In . SVG Version: 6.00 Build 0)  -->
<!DOCTYPE svg PUBLIC "-//W3C//DTD SVG 1.1//EN" "http://www.w3.org/Graphics/SVG/1.1/DTD/svg11.dtd">
<svg version="1.1" id="Ebene_1" xmlns="http://www.w3.org/2000/svg" xmlns:xlink="http://www.w3.org/1999/xlink" x="0px" y="0px"
	 width="20px" height="20px" viewBox="0 0 20 20" enable-background="new 0 0 20 20" xml:space="preserve">
<g id="Symbols">
	<g id="footer_x2F_idle" transform="translate(-210.000000, -130.000000)">
		<g id="Icon_x2F_twitter" transform="translate(210.000000, 130.000000)">
			<g id="footer-twitter">
				<path id="Twitter" fill="#3A3A3A" d="M10,0c5.523,0,10,4.477,10,10c0,5.523-4.477,10-10,10C4.477,20,0,15.523,0,10
					C0,4.477,4.477,0,10,0z M12.671,5.79c-1.341,0-2.43,1.071-2.43,2.391c0,0.188,0.02,0.372,0.065,0.545
					c-2.021-0.099-3.812-1.051-5.011-2.5c-0.207,0.352-0.328,0.764-0.328,1.2c0,0.829,0.429,1.563,1.084,1.989
					C5.653,9.405,5.28,9.296,4.953,9.118v0.03l0,0c0,1.161,0.837,2.123,1.951,2.347c-0.202,0.054-0.418,0.084-0.641,0.084
					c-0.156,0-0.307-0.016-0.458-0.045c0.308,0.952,1.205,1.642,2.269,1.662c-0.832,0.639-1.88,1.021-3.02,1.021
					c-0.196,0-0.388-0.01-0.58-0.035c1.064,0.685,2.344,1.082,3.715,1.082c4.471,0,6.917-3.646,6.917-6.806
					c0-0.104,0-0.208-0.005-0.308c0.474-0.337,0.888-0.759,1.216-1.24c-0.434,0.188-0.902,0.317-1.396,0.377
					c0.504-0.298,0.887-0.764,1.068-1.325C15.52,6.236,15,6.434,14.445,6.543C14.002,6.077,13.371,5.79,12.671,5.79z"/>
			</g>
		</g>
	</g>
</g>
</svg>
