<?xml version="1.0" encoding="utf-8"?>
<!-- Generator: Adobe Illustrator 16.0.0, SVG Export Plug-In . SVG Version: 6.00 Build 0)  -->
<!DOCTYPE svg PUBLIC "-//W3C//DTD SVG 1.1//EN" "http://www.w3.org/Graphics/SVG/1.1/DTD/svg11.dtd">
<svg version="1.1" id="Ebene_1" xmlns="http://www.w3.org/2000/svg" xmlns:xlink="http://www.w3.org/1999/xlink" x="0px" y="0px"
	 width="20px" height="20px" viewBox="0 0 20 20" enable-background="new 0 0 20 20" xml:space="preserve">
<g id="Symbols">
	<g id="footer_x2F_idle" transform="translate(-300.000000, -130.000000)">
		<g id="Icon_x2F_Youtube" transform="translate(300.000000, 130.000000)">
			<path id="Combined-Shape" fill="#3A3A3A" d="M0,10C0,4.477,4.477,0,10,0c5.523,0,10,4.477,10,10c0,5.523-4.477,10-10,10
				C4.477,20,0,15.523,0,10z M15.11,7.53c-0.122-0.471-0.483-0.842-0.942-0.968C13.336,6.333,10,6.333,10,6.333
				s-3.335,0-4.167,0.229C5.374,6.688,5.012,7.059,4.89,7.53c-0.223,0.854-0.223,2.636-0.223,2.636s0,1.783,0.223,2.636
				c0.123,0.471,0.484,0.842,0.943,0.969C6.665,14,10,14,10,14s3.336,0,4.168-0.229c0.459-0.127,0.82-0.498,0.942-0.969
				c0.224-0.854,0.224-2.636,0.224-2.636S15.334,8.385,15.11,7.53z"/>
			<polygon id="Fill-2" fill="#3A3A3A" points="9,12 9,8.667 11.666,10.333 			"/>
		</g>
	</g>
</g>
</svg>
